<?xml version="1.0" encoding="UTF-8" standalone="no"?>
<svg width="249px" height="507px" viewBox="0 0 249 507" version="1.1" xmlns="http://www.w3.org/2000/svg" xmlns:xlink="http://www.w3.org/1999/xlink">
    <!-- Generator: Sketch 3.6.1 (26313) - http://www.bohemiancoding.com/sketch -->
    <title>Apple iPhone 6</title>
    <desc>Created with Sketch.</desc>
    <defs></defs>
    <g id="Magazine-Ingestor" stroke="none" stroke-width="1" fill="none" fill-rule="evenodd">
        <g id="Create-Campaign-06-2" transform="translate(-516.000000, -108.000000)" fill="#FFFFFF">
            <g id="preview" transform="translate(516.000000, 108.000000)">
                <g id="phone">
                    <path d="M247.496982,145 L248.24145,145 C248.660386,145 249,144.664356 249,144.250923 L249,108.249077 C249,107.835373 248.655169,107.5 248.24145,107.5 L247.496982,107.5 L247.496982,37.4997007 C247.496982,16.7891879 230.709804,0 210.001994,0 L38.9980057,0 C18.2900959,0 1.50301811,16.7965225 1.50301811,37.4997007 L1.50301811,64 L0.758549865,64 C0.339614343,64 0,64.3387121 0,64.7539182 L0,83.7460818 C0,84.1624593 0.344830576,84.5 0.758549865,84.5 L1.50301811,84.5 L1.50301811,107.5 L0.758549865,107.5 C0.339614343,107.5 0,107.835644 0,108.249077 L0,144.250923 C0,144.664627 0.344830576,145 0.758549865,145 L1.50301811,145 L1.50301811,153.5 L0.758549865,153.5 C0.339614343,153.5 0,153.835644 0,154.249077 L0,190.250923 C0,190.664627 0.344830576,191 0.758549865,191 L1.50301811,191 L1.50301811,469.500299 C1.50301811,490.210812 18.2901956,507 38.9980057,507 L210.001994,507 C230.709904,507 247.496982,490.203477 247.496982,469.500299 L247.496982,145 Z M16.5331992,61.5 L16.5331992,444.5 L232.466801,444.5 L232.466801,61.5 L16.5331992,61.5 Z M124.249497,491.5 C134.764021,491.5 143.287726,482.99341 143.287726,472.5 C143.287726,462.00659 134.764021,453.5 124.249497,453.5 C113.734973,453.5 105.211268,462.00659 105.211268,472.5 C105.211268,482.99341 113.734973,491.5 124.249497,491.5 Z M124.249497,489.5 C133.657229,489.5 141.283702,481.888841 141.283702,472.5 C141.283702,463.111159 133.657229,455.5 124.249497,455.5 C114.841765,455.5 107.215292,463.111159 107.215292,472.5 C107.215292,481.888841 114.841765,489.5 124.249497,489.5 Z M85.1710262,36 C87.3846101,36 89.1790744,34.209139 89.1790744,32 C89.1790744,29.790861 87.3846101,28 85.1710262,28 C82.9574422,28 81.1629779,29.790861 81.1629779,32 C81.1629779,34.209139 82.9574422,36 85.1710262,36 Z M124.750503,18.5 C126.133993,18.5 127.255533,17.3807119 127.255533,16 C127.255533,14.6192881 126.133993,13.5 124.750503,13.5 C123.367013,13.5 122.245473,14.6192881 122.245473,16 C122.245473,17.3807119 123.367013,18.5 124.750503,18.5 Z M106.711572,30 C105.606279,30 104.710262,30.8877296 104.710262,32 C104.710262,33.1045695 105.603595,34 106.711572,34 L142.789434,34 C143.894727,34 144.790744,33.1122704 144.790744,32 C144.790744,30.8954305 143.897411,30 142.789434,30 L106.711572,30 Z" id="Apple-iPhone-6"></path>
                </g>
            </g>
        </g>
    </g>
</svg>