<?xml version="1.0" encoding="UTF-8" standalone="no"?>
<svg width="84px" height="57px" viewBox="0 0 84 57" version="1.1" xmlns="http://www.w3.org/2000/svg" xmlns:xlink="http://www.w3.org/1999/xlink">
    <!-- Generator: Sketch 3.8.2 (29753) - http://www.bohemiancoding.com/sketch -->
    <title>IQ_logo_col</title>
    <desc>Created with Sketch.</desc>
    <defs></defs>
    <g id="Page-1" stroke="none" stroke-width="1" fill="none" fill-rule="evenodd">
        <g id="IQ_logo_col">
            <g id="Layer_1">
                <rect id="Rectangle-path" fill="#E9004C" x="1" y="15.54" width="11.51" height="40.59"></rect>
                <path d="M66.59,56.17 L62.25,52.49 C57.5451732,55.4816146 52.0752,57.047937 46.5,57 C30.14,57 18.4,44.84 18.4,29.77 L18.4,29.62 C18.4,14.55 30.29,2.21 46.64,2.21 C62.99,2.21 74.74,14.4 74.74,29.47 L74.74,29.62 C74.7154763,35.0528633 73.0645613,40.3539027 70,44.84 L83.37,56.17 L66.59,56.17 L66.59,56.17 Z M53.59,44.84 L45,37.5 L52.42,29.17 L61.11,37 C62.0733465,34.6979596 62.5630877,32.2254469 62.55,29.73 L62.55,29.62 C62.55,20.54 55.89,13 46.5,13 C37.11,13 30.6,20.42 30.6,29.51 L30.6,29.66 C30.6,38.75 37.26,46.32 46.65,46.32 C49.0620594,46.373909 51.4550801,45.8816305 53.65,44.88 L53.59,44.84 Z" id="Shape" fill="#E9004C"></path>
                <rect id="Rectangle-path" fill="#00ACC8" x="0.7" y="0.85" width="12.12" height="10.22"></rect>
            </g>
        </g>
    </g>
</svg>