<?xml version="1.0" standalone="no"?>
<!DOCTYPE svg PUBLIC "-//W3C//DTD SVG 1.1//EN" "http://www.w3.org/Graphics/SVG/1.1/DTD/svg11.dtd" >
<!--
2016-4-28: Created with FontForge (http://fontforge.org)
-->
<svg xmlns="http://www.w3.org/2000/svg" xmlns:xlink="http://www.w3.org/1999/xlink" version="1.1">
<metadata>
Created by FontForge 20150603 at Thu Apr 28 23:18:00 2016
 By icons8
Copyright (c) 2016, icons8
</metadata>
<defs>
<font id="android" horiz-adv-x="427" >
  <font-face 
    font-family="android"
    font-weight="400"
    font-stretch="normal"
    units-per-em="512"
    panose-1="2 0 5 3 0 0 0 0 0 0"
    ascent="448"
    descent="-64"
    bbox="0 -64 470.5 405"
    underline-thickness="25.6"
    underline-position="-51.2"
    unicode-range="U+F100-F11A"
  />
    <missing-glyph />
    <glyph glyph-name="uniF114" unicode="&#xf114;" horiz-adv-x="425" 
d="M218 399l192 -192l15 -15l-15 -15l-192 -192l-31 30l156 156h-343v42h343l-156 156z" />
    <glyph glyph-name="uniF10A" unicode="&#xf10a;" 
d="M213 405c117 0 214 -96 214 -213s-97 -213 -214 -213s-213 96 -213 213s96 213 213 213zM213 371c-6 0 -10 0 -16 -1l-1 -1c-2 -11 6 -8 15 -10c0 0 2 -18 2 -20c2 -11 -4 -17 -4 -28c0 -6 0 -17 4 -21h2c2 0 5 3 9 5c6 4 13 10 19 14s13 11 17 15c6 4 11 13 13 19
c2 3 6 10 7 16c-21 8 -43 12 -67 12zM131 339c-8 0 -17 -1 -25 -4c-43 -33 -72 -85 -72 -143c0 -6 0 -11 1 -17c7 -10 17 -19 27 -26c9 -6 25 -6 34 -17c6 -9 4 -18 4 -29c0 -13 9 -24 13 -35c2 -6 4 -15 6 -21c0 -1 1 -5 1 -8c14 -9 30 -15 46 -20c2 3 5 8 5 9
c6 6 11 15 17 19c4 2 9 4 13 8s6 14 8 20c2 4 4 13 2 19c0 4 -2 7 -6 9c-13 4 -25 3 -36 14c-2 4 -3 9 -5 13c-4 4 -15 7 -21 9h-28h-15c-6 2 -11 11 -15 17c0 2 0 6 -4 6c-4 2 -9 -2 -13 0c-2 2 -2 5 -2 7c0 6 5 12 9 16c6 4 13 -2 19 -2c2 0 2 0 4 -2c6 -2 9 -11 9 -17v-4
c0 -2 2 -2 4 -2c2 11 2 21 4 32c0 13 13 26 24 30c4 2 6 -2 10 0c13 4 45 17 39 34c-4 15 -18 29 -35 27c-4 -2 -6 -4 -10 -6c-6 -4 -20 -17 -26 -17c-11 2 -10 17 -8 23c2 9 21 36 34 32l8 -8c4 -2 12 -2 18 -2c2 0 4 0 6 2s2 2 2 4c0 6 -6 14 -10 18s-12 8 -18 10
c-5 2 -12 2 -18 2zM326 331c-6 -2 -11 -11 -15 -15l-12 -19c-2 -2 -4 -7 -2 -9c0 -2 2 -2 4 -2l10 -5c2 0 4 -2 2 -4c0 0 0 -2 -2 -2c-11 -11 -21 -19 -32 -30c-2 -2 -4 -6 -4 -8s2 -2 2 -4s-2 -3 -4 -5c-4 -2 -8 -4 -10 -6c-2 -4 -1 -11 -3 -15c-2 -11 -9 -19 -13 -30
c-4 -6 -6 -13 -10 -19c0 -9 -2 -15 2 -21c11 -15 30 -7 45 -13c4 -2 9 -3 11 -7c6 -6 6 -17 8 -23c2 -9 4 -17 8 -26c2 -8 5 -14 7 -21c45 33 75 86 75 145c0 56 -27 106 -67 139z" />
    <glyph glyph-name="uniF11A" unicode="&#xf11a;" horiz-adv-x="471" 
d="M235 341c128 0 227 -130 231 -136c6 -9 6 -17 0 -26c-4 -6 -103 -136 -231 -136s-226 130 -230 136c-6 9 -6 17 0 26c4 6 102 136 230 136zM235 299c-60 0 -106 -47 -106 -107s46 -107 106 -107s107 47 107 107s-47 107 -107 107zM235 245c29 0 54 -24 54 -53
s-25 -53 -54 -53s-53 24 -53 53s24 53 53 53z" />
    <glyph glyph-name="uniF113" unicode="&#xf113;" horiz-adv-x="363" 
d="M0 405h21h256h22v-21v-320v-21h-22h-256h-21v21v320v21zM43 363v-278h213v278h-213zM320 341h43v-341v-21h-22h-277v42h256v320zM103 320h1h1h1h1h85c12 0 21 -9 21 -21v-64v0c0 -7 -5 -17 -12 -20l-30 -15v-8h-43v21v0c0 7 5 17 12 20l31 15v29h-43v-23h-43v45v0
c0 10 8 19 18 21zM128 171h43v-43h-43v43z" />
    <glyph glyph-name="uniF103" unicode="&#xf103;" horiz-adv-x="384" 
d="M64 405h43v-42h170v42h43v-42h21c23 0 43 -20 43 -43v-299c0 -23 -20 -42 -43 -42h-298c-23 0 -43 19 -43 42v299c0 23 20 43 43 43h21v42zM43 256v-235h298v235h-298zM192 171h107v-107h-107v107z" />
    <glyph glyph-name="uniF118" unicode="&#xf118;" 
d="M192 405h43v-21h170h22v-21v-256v-22h-22h-135l71 -106h-53l-71 106h-7l-71 -106h-54l72 106h-136h-21v22v256v21h21h171v21zM43 341v-213h341v213h-341zM277 307l16 -14l42 -43l-30 -31l-28 28l-70 -70l-15 -15l-15 15l-28 27l-27 -27l-31 30l43 43l15 15l16 -15l27 -27
l70 70z" />
    <glyph glyph-name="uniF108" unicode="&#xf108;" horiz-adv-x="332" 
d="M30 358l136 -136l136 136l30 -30l-136 -136l136 -136l-30 -30l-136 136l-136 -136l-30 30l136 136l-136 136z" />
    <glyph glyph-name="uniF10D" unicode="&#xf10d;" 
d="M0 341h427v-42h-427v42zM0 213h427v-42h-427v42zM0 85h427v-42h-427v42z" />
    <glyph glyph-name="uniF116" unicode="&#xf116;" horiz-adv-x="213" 
d="M0 235h213l-106 -107z" />
    <glyph glyph-name="uniF100" unicode="&#xf100;" horiz-adv-x="341" 
d="M0 363h85v-86h-85v86zM128 363h85v-86h-85v86zM256 363h85v-86h-85v86zM0 235h85v-86h-85v86zM128 235h85v-86h-85v86zM256 235h85v-86h-85v86zM0 107h85v-86h-85v86zM128 107h85v-86h-85v86zM256 107h85v-86h-85v86z" />
    <glyph glyph-name="uniF119" unicode="&#xf119;" horiz-adv-x="299" 
d="M107 384h85l21 -21h86v-43h-299v43h85zM21 299h256v-278c0 -23 -19 -42 -42 -42h-171c-23 0 -43 19 -43 42v278zM85 235v-192h43v192h-43zM171 235v-192h42v192h-42z" />
    <glyph glyph-name="uniF110" unicode="&#xf110;" horiz-adv-x="384" 
d="M85 405h256c11 0 23 -4 31 -12s12 -19 12 -30v-342c0 -11 -4 -22 -12 -30s-20 -12 -31 -12h-256c-11 0 -22 4 -30 12s-12 19 -12 30v64c-23 0 -43 20 -43 43v107c0 23 20 42 43 42v86c0 11 4 22 12 30s19 12 30 12zM85 363v-86h214c23 0 42 -19 42 -42v128h-256zM53 235
v-107h22v39h14c6 0 12 0 16 2s8 4 10 6s4 6 6 10s3 10 3 16s-1 10 -3 14s-4 9 -6 11s-6 5 -10 7s-10 2 -16 2h-36zM141 235v-107h28c6 0 10 0 16 2c4 2 10 5 14 9s6 8 8 14s2 14 2 20v17c0 6 0 13 -2 19s-4 11 -8 15s-10 7 -14 9c-6 2 -10 2 -16 2h-28zM231 235v-107h21v43
h34v17h-34v27h38v20h-59zM75 217h14c2 0 5 -2 7 -2c2 -2 4 -2 4 -4s3 -4 3 -4v-6v-7c0 -2 -3 -2 -3 -4c-2 -2 -2 -5 -4 -5c-2 -2 -5 -2 -7 -2h-14v34zM162 215h7c2 0 6 -2 8 -2s4 -2 6 -4s5 -2 5 -6v-13v-17v-13c-2 -4 -3 -7 -5 -9s-4 -4 -6 -4c-2 -2 -4 -2 -8 -2h-7v70z
M341 128c0 -23 -19 -43 -42 -43h-214v-64h256v107z" />
    <glyph glyph-name="uniF106" unicode="&#xf106;" horiz-adv-x="405" 
d="M85 405h43v-42h171v42h42v-42h22c24 0 42 -19 42 -43v-299c0 -24 -18 -42 -42 -42h-299c-24 0 -43 18 -43 42v64h43v-64h299v235h-299v-85h-43v149c0 24 19 43 43 43h21v42zM128 192l64 -64l-64 -64v43h-128v42h128v43z" />
    <glyph glyph-name="uniF117" unicode="&#xf117;" 
d="M427 235c-23 0 -43 -20 -43 -43s20 -43 43 -43v-85c0 -23 -20 -43 -43 -43h-341c-23 0 -43 20 -43 43v85c23 0 43 20 43 43s-20 43 -43 43v85c0 23 20 43 43 43h341c23 0 43 -20 43 -43v-85zM279 102l-17 73l58 51l-77 7l-30 70l-30 -70l-76 -7l57 -51l-17 -75l66 41z
" />
    <glyph glyph-name="uniF111" unicode="&#xf111;" 
d="M43 363h341c23 0 43 -20 43 -43v-256c0 -23 -20 -43 -43 -43h-341c-23 0 -43 20 -43 43v256c0 23 20 43 43 43zM43 320v-256h341v256h-341zM309 277c18 0 32 -14 32 -32s-14 -32 -32 -32s-32 14 -32 32s14 32 32 32zM128 235l85 -64l43 21l85 -51v-34h-256v85z" />
    <glyph glyph-name="uniF109" unicode="&#xf109;" 
d="M43 363h341c23 0 43 -20 43 -43v-256c0 -23 -20 -43 -43 -43h-341c-23 0 -43 20 -43 43v256c0 23 20 43 43 43zM43 320v-256h341v256h-341zM269 279c2 0 4 -2 6 -4l22 -21c2 -4 2 -11 0 -13l-16 -15l-34 34l16 15c2 2 4 4 6 4zM239 252l34 -35l-111 -110h-34v34z" />
    <glyph glyph-name="uniF105" unicode="&#xf105;" horiz-adv-x="384" 
d="M64 405h43v-42h170v42h43v-42h21c24 0 43 -19 43 -43v-149l-43 42v43h-298v-235h298v22l43 42v-64c0 -24 -19 -42 -43 -42h-298c-24 0 -43 18 -43 42v299c0 24 19 43 43 43h21v42zM320 192l64 -64l-64 -64v43h-128v42h128v43z" />
    <glyph glyph-name="uniF10F" unicode="&#xf10f;" 
d="M87 405h252c15 0 27 -8 36 -21l48 -75c2 -6 4 -15 4 -21v-139v-128c0 -23 -20 -42 -43 -42h-341c-23 0 -43 19 -43 42v267c0 6 2 15 4 19l47 77c9 13 21 21 36 21zM87 363l-25 -43h303l-26 43h-252zM43 277v-256h341v128v128h-341zM167 235h1h1h1h1h85v0
c12 0 22 -10 22 -22s-10 -21 -22 -21v0h-85h-2c-12 0 -22 9 -22 21c0 11 9 21 20 22z" />
    <glyph glyph-name="uniF115" unicode="&#xf115;" horiz-adv-x="415" 
d="M366 171l44 -34c4 -4 5 -11 3 -15l-43 -75c-2 -4 -9 -6 -13 -4l-51 23c-11 -9 -23 -15 -38 -21l-7 -56c0 -6 -5 -10 -11 -10h-85c-6 0 -11 4 -11 10l-6 56c-13 4 -27 12 -38 21l-52 -23c-4 -2 -10 0 -12 6l-43 75c-4 6 -2 13 2 15l45 32c-2 6 -2 15 -2 21s2 15 2 21
l-45 34c-6 2 -6 9 -2 15l43 75c2 4 8 6 12 4l52 -21c11 9 23 15 38 21l6 54c0 6 5 10 11 10h85c6 0 11 -4 11 -10l7 -56c13 -4 27 -12 38 -21l51 23c4 2 11 0 13 -6l43 -75c4 -6 1 -13 -3 -15l-44 -32c2 -6 2 -15 2 -21s-2 -15 -2 -21zM208 107c47 0 85 38 85 85
s-38 85 -85 85s-86 -38 -86 -85s39 -85 86 -85z" />
    <glyph glyph-name="uniF102" unicode="&#xf102;" horiz-adv-x="384" 
d="M192 405c17 0 32 -15 32 -32v-14c67 -15 117 -74 117 -146v-96l43 -49v-25h-384v25l43 49v96c0 72 50 131 117 146v14c0 17 15 32 32 32zM149 21h86c0 -23 -20 -42 -43 -42s-43 19 -43 42z" />
    <glyph glyph-name="uniF10C" unicode="&#xf10c;" horiz-adv-x="341" 
d="M43 405h298v-320v-42h-42h-43h-213v-22h213h43h42v-42h-298c-24 0 -43 18 -43 42v22v320c0 24 19 42 43 42zM43 363v-278h256v278h-256zM171 329c16 0 30 -14 30 -30s-14 -30 -30 -30s-30 14 -30 30s14 30 30 30zM171 256c45 0 64 -18 64 -18v-25h-128v25s19 18 64 18z
M85 192h171v-43h-171v43z" />
    <glyph glyph-name="uniF112" unicode="&#xf112;" horiz-adv-x="299" 
d="M128 341h43v-128h128v-42h-128v-128h-43v128h-128v42h128v128z" />
    <glyph glyph-name="uniF104" unicode="&#xf104;" 
d="M213 405c117 0 214 -96 214 -213s-97 -213 -214 -213s-213 96 -213 213s96 213 213 213zM213 363c-94 0 -170 -77 -170 -171s76 -171 170 -171s171 77 171 171s-77 171 -171 171zM224 343c9 -2 17 -2 23 -4l-4 -21c-6 0 -13 2 -19 2v23zM181 339l4 -21l-18 -7l-9 20
c6 2 14 4 23 8zM283 324l35 -25l-65 -90v0c2 -5 3 -11 3 -17c0 -24 -19 -43 -43 -43s-42 19 -42 43s18 43 42 43c2 0 3 -1 5 -1zM119 307l13 -17c-4 -4 -11 -9 -15 -13l-14 15c4 4 10 11 16 15zM339 271c4 -6 9 -13 11 -19l-19 -9c-2 6 -5 11 -9 17zM77 254l19 -9l-7 -19
l-21 7c2 6 7 15 9 21zM363 207v-15v-7h-22v7v13zM64 188h21c0 -6 2 -13 2 -19l-21 -5c0 9 -2 15 -2 24zM335 147l19 -6c-4 -9 -7 -16 -11 -22l-19 11c4 4 7 11 11 17zM100 130c2 -6 7 -13 11 -17l-17 -13c-4 6 -9 13 -11 19z" />
    <glyph glyph-name="uniF10E" unicode="&#xf10e;" horiz-adv-x="384" 
d="M0 363h384v-342h-384v342zM64 43v42h-43v-42h43zM64 128v43h-43v-43h43zM64 213v43h-43v-43h43zM64 299v42h-43v-42h43zM363 43v42h-43v-42h43zM363 128v43h-43v-43h43zM363 213v43h-43v-43h43zM363 299v42h-43v-42h43z" />
    <glyph glyph-name="uniF107" unicode="&#xf107;" horiz-adv-x="299" 
d="M107 384h85l21 -21h86v-43h-43h-213h-43v43h85zM21 299h256v-278c0 -23 -19 -42 -42 -42h-171c-23 0 -43 19 -43 42v278z" />
    <glyph glyph-name="uniF101" unicode="&#xf101;" horiz-adv-x="405" 
d="M43 405h256c11 0 22 -4 30 -12s12 -19 12 -30v-214h-42v214h-256v-320h149v-43h-149c-11 0 -23 4 -31 12s-12 20 -12 31v320c0 11 4 22 12 30s20 12 31 12zM299 107h42v-64h64v-43h-64v-64h-42v64h-64v43h64v64z" />
    <glyph glyph-name="uniF10B" unicode="&#xf10b;" horiz-adv-x="425" 
d="M207 399l30 -30l-155 -156h343v-42h-343l155 -156l-30 -30l-192 192l-15 15l15 15z" />
  </font>
</defs>
</svg>
